# xmcd CD database file
#
# Track frame offsets:
#	187
#	17940
#	33690
#
# Disc length: 738 seconds
#
# Revision: 0
# Processed by: cddbd v1.5.1PL0 Copyright (c) Steve Scherf et al.
# Submitted via: CDex 1.51
#
DISCID=2102e003
DTITLE=梁　邦彦 - 梁　邦彦 - スカーレット
DYEAR=1997
DGENRE=J-POP
TTITLE0=スカーレット （リバーサイド・ヴァージョン）
TTITLE1=スカーレット （スノーフレーク・ヴァージョン）
TTITLE2=Missin' You
EXTD=YEAR: 1997
EXTT0=
EXTT1=
EXTT2=
PLAYORDER=
